<svg width="9" height="11" viewBox="0 0 9 11" fill="none" xmlns="http://www.w3.org/2000/svg">
<path fill-rule="evenodd" clip-rule="evenodd" d="M6.5 2.25H8.75V3H8V9.75L7.25 10.5H2L1.25 9.75V3H0.5V2.25H2.75V1.5C2.75 1.30109 2.82902 1.11032 2.96967 0.96967C3.11032 0.829018 3.30109 0.75 3.5 0.75H5.75C5.94891 0.75 6.13968 0.829018 6.28033 0.96967C6.42098 1.11032 6.5 1.30109 6.5 1.5V2.25ZM5.75 1.5H3.5V2.25H5.75V1.5ZM2 9.75H7.25V3H2V9.75ZM3.5 3.75H2.75V9H3.5V3.75ZM4.25 3.75H5V9H4.25V3.75ZM5.75 3.75H6.5V9H5.75V3.75Z" fill="black"/>
</svg>
