<svg width="28" height="16" viewBox="0 0 28 16" fill="none" xmlns="http://www.w3.org/2000/svg">
<path d="M16.3368 14.547C16.3368 14.2102 16.6105 13.9365 16.9684 13.9365C17.3263 13.9365 17.6 14.2102 17.6 14.547C17.6 14.8839 17.3263 15.1786 16.9684 15.1786C16.6105 15.1786 16.3368 14.9049 16.3368 14.547ZM16.4631 14.547C16.4631 14.8207 16.6947 15.0523 16.9894 15.0523C17.2631 15.0523 17.4947 14.8418 17.4947 14.547C17.4947 14.2734 17.2631 14.0628 16.9894 14.0628C16.6737 14.0628 16.4631 14.2944 16.4631 14.547Z" fill="#E31837"/>
<path d="M17.2842 14.9051H17.1579L16.9473 14.5893H16.821V14.9051H16.7368V14.2104H17.0526C17.1158 14.2104 17.1789 14.2104 17.221 14.2525C17.2842 14.2735 17.3052 14.3367 17.3052 14.3999C17.3052 14.5262 17.2 14.5893 17.0737 14.5893L17.2842 14.9051ZM16.9473 14.5051C17.0526 14.5051 17.1789 14.5262 17.1789 14.3999C17.1789 14.3157 17.0947 14.2946 17.0105 14.2946H16.821V14.5051H16.9473Z" fill="#E31837"/>
<path d="M13.9579 15.1788C18.379 11.3893 24.5895 7.70512 28 6.3788C27.4737 6.04196 26.6527 5.55775 25.7264 5.03143C21.3264 6.48406 16.1895 9.70512 11.6 13.3472C12.379 13.9367 13.2 14.5472 13.9579 15.1788Z" fill="#E31837"/>
<path d="M11.9369 4.88415C11.2842 4.56836 10.5684 4.27363 10.0211 4.021C8.35792 4.84205 6.18951 6.08415 3.45267 8.04205C4.04214 8.35784 4.67372 8.73678 5.3474 9.11573C7.45267 7.55784 9.57898 6.08415 11.9369 4.88415Z" fill="#012169"/>
<path d="M15.8736 3.07338C15.0736 2.63128 12.2947 1.5997 10.3789 1.15759C9.81045 1.36812 9.01046 1.68391 8.46309 1.91549C9.15783 2.10496 11.7473 2.7997 13.9578 3.91549C14.5262 3.6418 15.3262 3.30496 15.8736 3.07338Z" fill="#E31837"/>
<path d="M6.46314 2.79993C3.99999 3.93677 1.41051 5.49466 -1.52588e-05 6.39992C0.505248 6.6315 1.01051 6.82098 1.70524 7.15782C4.82103 5.05256 7.26313 3.76835 8.23155 3.34729C7.53682 3.09466 6.88419 2.92624 6.46314 2.79993Z" fill="#012169"/>
<path d="M17.7263 2.42081C18.2947 2.23133 18.9473 2.06291 19.5157 1.89449C17.8736 1.19976 15.8105 0.462914 13.9579 -0.000244141C13.6631 0.0839663 12.7789 0.315545 12.1684 0.505019C12.8 0.694492 14.8842 1.1787 17.7263 2.42081ZM7.34734 10.3366C8.02102 10.7366 8.7368 11.284 9.43154 11.7471C14.0421 8.16817 18.5894 5.41028 23.5789 3.85239C22.8842 3.49449 22.2736 3.1787 21.4947 2.79975C18.5052 3.55765 13.3894 5.59975 7.34734 10.3366Z" fill="#E31837"/>
</svg>
