<svg width="347" height="90" viewBox="0 0 347 90" fill="none" xmlns="http://www.w3.org/2000/svg">
<path d="M343 84.7902V69.9998C343 61.1632 335.837 53.9998 327 53.9998L20 53.9998C11.1634 53.9998 3.99999 61.1632 3.99999 69.9998V84.7902" stroke="white" stroke-opacity="0.8" stroke-width="0.5" stroke-linecap="round"/>
<path d="M173 53.9998L173 5.98233" stroke="white" stroke-opacity="0.8" stroke-width="1.5" stroke-linecap="round"/>
<path d="M343.72 85.5472L346.847 80.5155C347.222 79.9126 346.866 79.1354 346.219 79.0156C346.106 78.9945 345.99 79.0198 345.881 79.059L343 80.0977L340.119 79.059C340.01 79.0198 339.894 78.9945 339.781 79.0156C339.143 79.134 338.785 79.8923 339.14 80.4952L342.103 85.527C342.469 86.1484 343.339 86.1593 343.72 85.5472Z" fill="white" fill-opacity="0.8"/>
<path d="M4.71965 85.5472L7.84744 80.5155C8.22217 79.9126 7.86615 79.1354 7.21941 79.0156C7.10572 78.9945 6.98982 79.0198 6.88105 79.059L3.99997 80.0977L1.11889 79.059C1.01011 79.0198 0.894216 78.9945 0.780534 79.0156C0.142944 79.134 -0.21483 79.8923 0.140226 80.4952L3.10339 85.527C3.46935 86.1484 4.33918 86.1593 4.71965 85.5472Z" fill="white" fill-opacity="0.8"/>
<path d="M173 1.49976C174.381 1.49976 175.5 2.61904 175.5 3.99976C175.5 5.38047 174.381 6.49976 173 6.49976C171.619 6.49976 170.5 5.38047 170.5 3.99976C170.5 2.61904 171.619 1.49976 173 1.49976Z" fill="white" stroke="white" stroke-width="3"/>
</svg>
