<svg width="18" height="16" viewBox="0 0 18 16" fill="none" xmlns="http://www.w3.org/2000/svg">
<g clip-path="url(#clip0_1_507)">
<path d="M8.03382 0.189667L1.32608 2.96525C0.953074 3.11959 0.956941 3.64939 1.33234 3.79825L8.06807 6.46935C8.65989 6.70407 9.31899 6.70407 9.91082 6.46935L16.6467 3.79817C17.0219 3.64946 17.0259 3.11966 16.6527 2.96525L9.94513 0.189597C9.33319 -0.0636058 8.64577 -0.0635355 8.03382 0.189667Z" fill="#FFBF00"/>
<path d="M9.58709 7.92798V14.6008C9.58709 14.9182 9.90701 15.1355 10.202 15.0186L17.7078 12.1052C17.7915 12.072 17.8633 12.0144 17.9139 11.9399C17.9644 11.8655 17.9915 11.7775 17.9915 11.6875V5.01458C17.9915 4.69719 17.6715 4.47993 17.3765 4.59686L9.87073 7.51019C9.78703 7.54339 9.71523 7.60097 9.66465 7.67547C9.61406 7.74996 9.58701 7.83794 9.58702 7.92798" fill="#26B5F8"/>
<path d="M7.83441 8.27229L5.60691 9.34779L5.38072 9.45712L0.6785 11.7101C0.380446 11.8539 -1.52588e-05 11.6367 -1.52588e-05 11.3056V5.04255C-1.52588e-05 4.92274 0.0614379 4.81931 0.143844 4.74141C0.177605 4.70781 0.215898 4.6791 0.25761 4.65612C0.369969 4.58869 0.530282 4.57069 0.666547 4.62462L7.79694 7.44977C8.1594 7.59356 8.18787 8.1015 7.83441 8.27229Z" fill="#ED3049"/>
<path d="M7.83442 8.27231L5.60692 9.34781L0.143776 4.7415C0.177537 4.7079 0.21583 4.6792 0.257542 4.65621C0.369901 4.58878 0.530213 4.57078 0.666479 4.62471L7.79687 7.44986C8.15933 7.59365 8.18788 8.10152 7.83442 8.27231Z" fill="black" fill-opacity="0.25"/>
</g>
<defs>
<clipPath id="clip0_1_507">
<rect width="18" height="15.1172" fill="white" transform="translate(-1.52588e-05 -0.000244141)"/>
</clipPath>
</defs>
</svg>
