<svg width="18" height="18" viewBox="0 0 18 18" fill="none" xmlns="http://www.w3.org/2000/svg">
<path d="M4.57798 4.43227C5.01598 4.78777 5.17948 4.76077 6.00148 4.70602L13.7505 4.24102C13.9155 4.24102 13.7782 4.07602 13.7235 4.04902L12.4365 3.11902C12.1897 2.92777 11.8612 2.70802 11.232 2.76277L3.72823 3.31027C3.45523 3.33727 3.40048 3.47452 3.50923 3.58402L4.57798 4.43227ZM5.04298 6.23827V14.3908C5.04298 14.8295 5.26198 14.993 5.75548 14.966L14.271 14.4733C14.7637 14.4463 14.8185 14.1448 14.8185 13.7893V5.69077C14.8185 5.33527 14.682 5.14327 14.3805 5.17102L5.48098 5.69077C5.15248 5.71777 5.04298 5.88202 5.04298 6.23827ZM13.4505 6.67552C13.5045 6.92152 13.4505 7.16827 13.203 7.19602L12.7927 7.27777V13.2965C12.4365 13.4885 12.108 13.598 11.8342 13.598C11.3962 13.598 11.2867 13.4608 10.9582 13.0505L8.27398 8.83702V12.914L9.12373 13.1053C9.12373 13.1053 9.12373 13.598 8.43824 13.598L6.54899 13.7075C6.49424 13.598 6.54898 13.325 6.74098 13.2695L7.23374 13.133V7.74277L6.54899 7.68802C6.49424 7.44127 6.63148 7.08577 7.01473 7.05802L9.04123 6.92227L11.8342 11.1898V7.41502L11.1217 7.33327C11.0677 7.03177 11.2867 6.81352 11.5605 6.78577L13.4505 6.67627V6.67552ZM3.09823 2.57152L10.9027 1.99702C11.8605 1.91452 12.1072 1.97002 12.7102 2.40727L15.201 4.15852C15.612 4.45927 15.7492 4.54102 15.7492 4.86952V14.4733C15.7492 15.0755 15.5302 15.431 14.7637 15.4858L5.69998 16.0333C5.12473 16.0603 4.85098 15.9785 4.54948 15.5953L2.71498 13.2148C2.38648 12.7768 2.24998 12.449 2.24998 12.065V3.52927C2.24998 3.03652 2.46823 2.62627 3.09823 2.57152Z" fill="white"/>
</svg>
