<svg width="18" height="18" viewBox="0 0 18 18" fill="none" xmlns="http://www.w3.org/2000/svg">
<g clip-path="url(#clip0_1_546)">
<path d="M14.871 4.95876L10.731 0.807511C10.5118 0.581616 10.2495 0.402026 9.95967 0.279385C9.6698 0.156745 9.35826 0.0935516 9.04351 0.0935516C8.72876 0.0935516 8.41722 0.156745 8.12735 0.279385C7.83748 0.402026 7.57518 0.581616 7.35601 0.807511L3.20476 4.95876L9.02101 7.86126L14.871 4.95876ZM16.4595 6.63501L17.2808 7.45626C17.5081 7.67462 17.6889 7.93665 17.8125 8.22663C17.936 8.51661 17.9997 8.82856 17.9997 9.14376C17.9997 9.45896 17.936 9.77091 17.8125 10.0609C17.6889 10.3509 17.5081 10.6129 17.2808 10.8313L10.665 17.5123C10.5082 17.6727 10.3257 17.8058 10.125 17.906V9.80751L16.4595 6.63501ZM1.53976 6.63501L0.71851 7.45626C0.491204 7.67462 0.310356 7.93665 0.186819 8.22663C0.0632824 8.51661 -0.000396729 8.82856 -0.000396729 9.14376C-0.000396729 9.45896 0.0632824 9.77091 0.186819 10.0609C0.310356 10.3509 0.491204 10.6129 0.71851 10.8313L7.33501 17.5123C7.49251 17.6728 7.67476 17.8063 7.87501 17.906V9.80751L1.53976 6.63501Z" fill="white"/>
</g>
<defs>
<clipPath id="clip0_1_546">
<rect width="18" height="18" fill="white" transform="translate(0 -0.000244141)"/>
</clipPath>
</defs>
</svg>
