<svg width="13" height="13" viewBox="0 0 13 13" fill="none" xmlns="http://www.w3.org/2000/svg">
<path d="M4.75931 11.0893C2.16622 10.162 0.836398 7.28202 1.80076 4.73311C2.29931 3.3422 3.39622 2.28348 4.75931 1.78657C4.8924 1.72057 4.9584 1.62129 4.9584 1.45548V0.99184C4.9584 0.85984 4.8924 0.760568 4.75931 0.727295C4.72603 0.727295 4.65949 0.727295 4.62622 0.760022C3.87809 0.993654 3.18356 1.37297 2.58263 1.87612C1.9817 2.37927 1.48623 2.99632 1.12475 3.69175C0.763273 4.38717 0.542928 5.14723 0.476402 5.92816C0.409877 6.7091 0.498485 7.49548 0.737125 8.24202C1.33494 10.0966 2.76458 11.5202 4.62622 12.1158C4.75931 12.1818 4.8924 12.1158 4.92513 11.9833C4.9584 11.9506 4.9584 11.9167 4.9584 11.8507V11.3871C4.9584 11.2878 4.85913 11.1558 4.75931 11.0893ZM8.28294 0.760568C8.14985 0.694022 8.01676 0.760568 7.98403 0.892568C7.95076 0.92584 7.95076 0.959113 7.95076 1.02511V1.48875C7.95076 1.62129 8.05003 1.75329 8.14985 1.81984C10.7429 2.74711 12.0728 5.62711 11.1084 8.17602C10.6099 9.56693 9.51294 10.6257 8.14985 11.1226C8.01676 11.1886 7.95076 11.2878 7.95076 11.4537V11.9173C7.95076 12.0493 8.01676 12.1486 8.14985 12.1818C8.18313 12.1818 8.24967 12.1818 8.28294 12.1491C9.03107 11.9155 9.7256 11.5362 10.3265 11.033C10.9275 10.5299 11.4229 9.91282 11.7844 9.21739C12.1459 8.52197 12.3662 7.7619 12.4328 6.98097C12.4993 6.20004 12.4107 5.41366 12.172 4.66711C11.5742 2.77984 10.1113 1.3562 8.28294 0.760568Z" fill="white"/>
</svg>
