<svg width="18" height="18" viewBox="0 0 18 18" fill="none" xmlns="http://www.w3.org/2000/svg">
<path d="M11.0143 8.63414L4.78802 7.53726V15.6423C4.7881 15.7304 4.80551 15.8176 4.83928 15.8989C4.87304 15.9802 4.92249 16.0541 4.98481 16.1163C5.04712 16.1785 5.12108 16.2278 5.20246 16.2614C5.28383 16.2951 5.37104 16.3123 5.45909 16.3123H16.2028C16.291 16.3125 16.3783 16.2953 16.4598 16.2618C16.5413 16.2282 16.6154 16.1789 16.6778 16.1167C16.7403 16.0544 16.7898 15.9805 16.8237 15.8991C16.8575 15.8177 16.875 15.7305 16.875 15.6423V12.656L11.0143 8.63414Z" fill="#185C37"/>
<path d="M11.0143 1.68726H5.45909C5.37104 1.68718 5.28383 1.70445 5.20246 1.73808C5.12108 1.77171 5.04712 1.82103 4.98481 1.88324C4.92249 1.94545 4.87304 2.01933 4.83928 2.10065C4.80551 2.18197 4.7881 2.26914 4.78802 2.35719V5.34351L11.0143 8.99976L14.3111 10.0966L16.875 8.99976V5.34351L11.0143 1.68726Z" fill="#21A366"/>
<path d="M4.78802 5.34351H11.0143V8.99976H4.78802V5.34351Z" fill="#107C41"/>
<path opacity="0.1" d="M9.24415 4.61226H4.78802V13.7529H9.24415C9.42171 13.752 9.59178 13.6812 9.71749 13.5558C9.8432 13.4304 9.91445 13.2605 9.91577 13.0829V5.2822C9.91445 5.10464 9.8432 4.93475 9.71749 4.80935C9.59178 4.68395 9.42171 4.61314 9.24415 4.61226Z" fill="black"/>
<path opacity="0.2" d="M8.87796 4.97787H4.78802V14.1185H8.87796C9.05552 14.1176 9.22559 14.0468 9.3513 13.9214C9.47702 13.796 9.54826 13.6261 9.54959 13.4486V5.64781C9.54826 5.47025 9.47702 5.30037 9.3513 5.17497C9.22559 5.04957 9.05552 4.97876 8.87796 4.97787Z" fill="black"/>
<path opacity="0.2" d="M8.87796 4.97787H4.78802V13.3872H8.87796C9.05552 13.3864 9.22559 13.3156 9.3513 13.1902C9.47702 13.0648 9.54826 12.8949 9.54959 12.7173V5.64781C9.54826 5.47025 9.47702 5.30037 9.3513 5.17497C9.22559 5.04957 9.05552 4.97876 8.87796 4.97787Z" fill="black"/>
<path opacity="0.2" d="M8.51177 4.97787H4.78802V13.3872H8.51177C8.68934 13.3864 8.8594 13.3156 8.98512 13.1902C9.11083 13.0648 9.18207 12.8949 9.1834 12.7173V5.64781C9.18207 5.47025 9.11083 5.30037 8.98512 5.17497C8.8594 5.04957 8.68934 4.97876 8.51177 4.97787Z" fill="black"/>
<path d="M1.79663 4.97788H8.51175C8.68963 4.97773 8.86029 5.04821 8.98623 5.17383C9.11217 5.29945 9.18308 5.46993 9.18338 5.64781V12.3517C9.18308 12.5296 9.11217 12.7001 8.98623 12.8257C8.86029 12.9513 8.68963 13.0218 8.51175 13.0216H1.79663C1.70853 13.0218 1.62126 13.0046 1.53982 12.971C1.45838 12.9374 1.38435 12.8881 1.32198 12.8258C1.25961 12.7636 1.21011 12.6897 1.17631 12.6084C1.14251 12.527 1.12507 12.4398 1.125 12.3517V5.64781C1.12507 5.55971 1.14251 5.47249 1.17631 5.39114C1.21011 5.30978 1.25961 5.23588 1.32198 5.17366C1.38435 5.11145 1.45838 5.06213 1.53982 5.02854C1.62126 4.99494 1.70853 4.97773 1.79663 4.97788Z" fill="url(#paint0_linear_1_572)"/>
<path d="M3.20624 11.1783L4.61868 8.99357L3.32493 6.8212H4.36386L5.0698 8.21226C5.13505 8.34389 5.1823 8.44176 5.20368 8.50701H5.21324C5.25936 8.40126 5.3083 8.29945 5.35949 8.19989L6.11436 6.82345H7.07061L5.74368 8.98345L7.10436 11.18H6.0868L5.27118 9.65507C5.2333 9.58951 5.20112 9.52082 5.17499 9.44976H5.16149C5.1377 9.519 5.10599 9.58525 5.06699 9.6472L4.22718 11.1783H3.20624Z" fill="white"/>
<path d="M16.2033 1.68726H11.0143V5.34351H16.875V2.35719C16.8749 2.2691 16.8575 2.18188 16.8237 2.10052C16.7899 2.01916 16.7404 1.94526 16.678 1.88304C16.6156 1.82083 16.5416 1.77151 16.4602 1.73792C16.3787 1.70432 16.2914 1.68711 16.2033 1.68726Z" fill="#33C481"/>
<path d="M11.0143 8.99976H16.875V12.656H11.0143V8.99976Z" fill="#107C41"/>
<defs>
<linearGradient id="paint0_linear_1_572" x1="2.52788" y1="4.45138" x2="7.7805" y2="13.5481" gradientUnits="userSpaceOnUse">
<stop stop-color="#18884F"/>
<stop offset="0.5" stop-color="#117E43"/>
<stop offset="1" stop-color="#0B6631"/>
</linearGradient>
</defs>
</svg>
