<svg width="12" height="8" viewBox="0 0 12 8" fill="none" xmlns="http://www.w3.org/2000/svg">
<path d="M4 6.99219C4 6.85958 4.05268 6.7324 4.14645 6.63863C4.24021 6.54487 4.36739 6.49219 4.5 6.49219H7.5C7.63261 6.49219 7.75979 6.54487 7.85355 6.63863C7.94732 6.7324 8 6.85958 8 6.99219C8 7.1248 7.94732 7.25197 7.85355 7.34574C7.75979 7.43951 7.63261 7.49219 7.5 7.49219H4.5C4.36739 7.49219 4.24021 7.43951 4.14645 7.34574C4.05268 7.25197 4 7.1248 4 6.99219ZM2 3.99219C2 3.85958 2.05268 3.7324 2.14645 3.63863C2.24021 3.54487 2.36739 3.49219 2.5 3.49219H9.5C9.63261 3.49219 9.75979 3.54487 9.85355 3.63863C9.94732 3.7324 10 3.85958 10 3.99219C10 4.1248 9.94732 4.25197 9.85355 4.34574C9.75979 4.43951 9.63261 4.49219 9.5 4.49219H2.5C2.36739 4.49219 2.24021 4.43951 2.14645 4.34574C2.05268 4.25197 2 4.1248 2 3.99219ZM0 0.992188C0 0.859579 0.0526785 0.732402 0.146447 0.638634C0.240215 0.544866 0.367392 0.492187 0.5 0.492188H11.5C11.6326 0.492187 11.7598 0.544866 11.8536 0.638634C11.9473 0.732402 12 0.859579 12 0.992188C12 1.1248 11.9473 1.25197 11.8536 1.34574C11.7598 1.43951 11.6326 1.49219 11.5 1.49219H0.5C0.367392 1.49219 0.240215 1.43951 0.146447 1.34574C0.0526785 1.25197 0 1.1248 0 0.992188Z" fill="black"/>
</svg>
